<?xml version="1.0" ?><!DOCTYPE svg  PUBLIC '-//W3C//DTD SVG 1.1//EN'  'http://www.w3.org/Graphics/SVG/1.1/DTD/svg11.dtd'><svg height="512px" style="enable-background:new 0 0 512 512;" version="1.1" viewBox="0 0 512 512" width="512px" xml:space="preserve" xmlns="http://www.w3.org/2000/svg" xmlns:xlink="http://www.w3.org/1999/xlink"><g id="_x31_50_x2C__App_x2C__Chat_x2C__Telephone_x2C__Watts_App"><g><path d="M386.82,124.223c-36.565-36.565-84.804-56.702-135.831-56.702c-49.118,0-95.05,18.881-129.334,53.166    c-62.196,62.196-70.749,161.543-20.337,236.229c0.901,1.334,1.104,3.021,0.545,4.533l-30.718,83.029l80.095-33.973    c1.539-0.652,3.304-0.492,4.703,0.428c31.396,20.682,67.736,31.613,105.09,31.613c49.112,0.002,95.04-18.877,129.322-53.158    C462.487,317.256,460.9,198.303,386.82,124.223z M319.658,367c-0.003,0-0.006,0-0.008,0c-37.043,0-79.734-20.773-117.125-57.152    c-0.033-0.033-0.065,0.047-0.097,0.014c-36.379-37.391-57.257-80.073-57.281-117.116c0-28.621,33.946-54.555,47.153-54.555    c11.607,0,14.204,4.617,19.893,14.728c1.443,2.564,3.079,5.472,5.207,9.01c1.211,2.004,2.832,4.474,4.547,7.087    c9.58,14.596,16.143,25.493,13.321,32.811c-2.399,6.176-9.515,11.856-16.396,17.35c-3.861,3.082-9.661,7.711-10.441,9.727    c0.191,9.302,12.396,27.854,29.806,45.263c17.396,17.395,35.932,29.594,45.246,29.805c2.007-0.791,6.611-6.559,9.678-10.4    c5.515-6.906,11.216-14.049,17.417-16.438c1.148-0.441,2.431-0.668,3.809-0.668c7.119,0,16.924,6.064,29.001,13.99    c2.613,1.717,5.082,3.336,7.094,4.551c3.531,2.125,6.438,3.762,9.002,5.205c10.111,5.688,14.726,8.156,14.726,19.764    C374.209,333.168,348.272,367,319.658,367z"/><path d="M354.58,308.926c-2.494-1.404-5.599-3.15-9.262-5.355c-2.179-1.316-4.724-2.986-7.418-4.754    c-7.038-4.619-18.816-12.352-23.514-12.352c-0.188,0-0.272,0.02-0.272,0.02c-3.613,1.395-8.895,8.01-13.138,13.326    c-6.309,7.902-11.291,14.143-17.249,14.164c-14.638-0.016-36.745-16.922-52.562-32.738s-32.722-37.924-32.737-52.539    c0-5.998,6.269-11.002,14.205-17.337c5.297-4.229,11.89-9.492,13.309-13.144c0.828-3.628-8.41-17.703-12.355-23.713    c-1.768-2.694-3.438-5.239-4.75-7.412c-2.208-3.67-3.955-6.774-5.358-9.268c-5.418-9.629-5.418-9.629-11.178-9.629    c-2.545,0-11.692,4.07-21.305,13.478c-5.918,5.792-15.848,17.531-15.848,31.078c0.022,33.938,20.358,75.096,54.4,110.106    c35.007,34.039,76.166,54.375,110.105,54.4c13.536-0.014,25.277-9.941,31.071-15.859c9.413-9.611,13.485-18.752,13.485-21.295    C364.209,314.344,364.209,314.344,354.58,308.926z"/></g></g><g id="Layer_1"/></svg>